<svg width="60" height="60" viewBox="0 0 60 60" fill="none" xmlns="http://www.w3.org/2000/svg">
<rect x="0.5" y="0.5" width="58.9986" height="59" rx="15.5" fill="white" stroke="#E0E0E0"/>
<path d="M40.16 15H18.9184C16.7544 15 15 16.7543 15 18.9184V40.1601C15 42.3242 16.7543 44.0785 18.9184 44.0785H29.3946L29.4125 33.6874H26.7129C26.3621 33.6874 26.0773 33.4038 26.076 33.0529L26.063 29.7034C26.0617 29.3507 26.3473 29.064 26.7 29.064H29.3947V25.8276C29.3947 22.0717 31.6886 20.0266 35.039 20.0266H37.7884C38.1401 20.0266 38.4254 20.3118 38.4254 20.6636V23.4879C38.4254 23.8396 38.1403 24.1247 37.7887 24.1249L36.1015 24.1257C34.2794 24.1257 33.9266 24.9915 33.9266 26.2622V29.0641H37.9304C38.3118 29.0641 38.6078 29.3972 38.5629 29.7761L38.1659 33.1255C38.1279 33.4461 37.8561 33.6876 37.5334 33.6876H33.9444L33.9266 44.0787H40.1601C42.3241 44.0787 44.0784 42.3244 44.0784 40.1603V18.9184C44.0784 16.7543 42.3241 15 40.16 15Z" fill="#475993"/>
</svg>
