<svg width="60" height="60" viewBox="0 0 60 60" fill="none" xmlns="http://www.w3.org/2000/svg">
<rect x="0.5" y="0.5" width="58.9986" height="59" rx="15.5" fill="white" stroke="#E0E0E0"/>
<path d="M17.5242 17.682C15.283 20.0099 15.7417 22.4829 15.7417 29.9956C15.7417 36.2343 14.6532 42.4886 20.3501 43.9609C22.1291 44.4184 37.8912 44.4184 39.6678 43.9586C42.0397 43.3466 43.9696 41.4226 44.2334 38.068C44.2702 37.5997 44.2702 22.3997 44.2322 21.922C43.9517 18.3486 41.7521 16.2892 38.8538 15.8721C38.1895 15.7759 38.0564 15.7473 34.6482 15.7414C22.5592 15.7473 19.9092 15.209 17.5242 17.682Z" fill="url(#paint0_linear_4_16)"/>
<path d="M29.9994 19.4714C25.6845 19.4714 21.5871 19.0876 20.0221 23.1042C19.3756 24.7631 19.4695 26.9176 19.4695 30.0025C19.4695 32.7095 19.3828 35.2538 20.0221 36.8996C21.5836 40.9186 25.7142 40.5336 29.997 40.5336C34.1289 40.5336 38.3891 40.9637 39.9731 36.8996C40.6208 35.2241 40.5257 33.1017 40.5257 30.0025C40.5257 25.8884 40.7527 23.2325 38.7575 21.2385C36.7373 19.2183 34.0053 19.4714 29.9946 19.4714H29.9994ZM29.0559 21.3692C38.0563 21.3549 39.2019 20.3543 38.5697 34.2544C38.3451 39.1705 34.6018 38.631 30.0006 38.631C21.6109 38.631 21.3697 38.391 21.3697 29.9977C21.3697 21.507 22.0351 21.3739 29.0559 21.3668V21.3692ZM35.6202 23.1172C34.9227 23.1172 34.357 23.6829 34.357 24.3804C34.357 25.078 34.9227 25.6436 35.6202 25.6436C36.3178 25.6436 36.8835 25.078 36.8835 24.3804C36.8835 23.6829 36.3178 23.1172 35.6202 23.1172ZM29.9994 24.5943C27.0131 24.5943 24.5924 27.0162 24.5924 30.0025C24.5924 32.9888 27.0131 35.4094 29.9994 35.4094C32.9857 35.4094 35.4052 32.9888 35.4052 30.0025C35.4052 27.0162 32.9857 24.5943 29.9994 24.5943ZM29.9994 26.4921C34.6399 26.4921 34.6458 33.5128 29.9994 33.5128C25.3601 33.5128 25.353 26.4921 29.9994 26.4921Z" fill="white"/>
<defs>
<linearGradient id="paint0_linear_4_16" x1="17.5789" y1="42.44" x2="44.0854" y2="19.4989" gradientUnits="userSpaceOnUse">
<stop stop-color="#FFDD55"/>
<stop offset="0.5" stop-color="#FF543E"/>
<stop offset="1" stop-color="#C837AB"/>
</linearGradient>
</defs>
</svg>
