<svg width="60" height="60" viewBox="0 0 60 60" fill="none" xmlns="http://www.w3.org/2000/svg">
<rect x="0.5" y="0.5" width="58.9986" height="59" rx="15.5" fill="white" stroke="#E0E0E0"/>
<path d="M39.8872 18.0358H20.1112C16.2312 18.0358 13.0859 21.1812 13.0859 25.0612V34.9471C13.0859 38.8271 16.2312 41.9725 20.1112 41.9725H39.8872C43.7672 41.9725 46.9126 38.8271 46.9126 34.9471V25.0612C46.9126 21.1812 43.7672 18.0358 39.8872 18.0358ZM35.136 30.4851L25.8861 34.8968C25.6397 35.0143 25.355 34.8346 25.355 34.5616V25.4626C25.355 25.1857 25.6471 25.0062 25.8941 25.1314L35.144 29.8187C35.419 29.9581 35.4142 30.3525 35.136 30.4851Z" fill="#F61C0D"/>
</svg>
